<svg width="31" height="30" viewBox="0 0 31 30" fill="none" xmlns="http://www.w3.org/2000/svg">
<path d="M21.2732 10.3922C21.143 10.0551 20.9437 9.74897 20.688 9.49358C20.4324 9.23819 20.1261 9.03918 19.7888 8.90937C19.3244 8.73738 18.834 8.64648 18.3388 8.64062C17.5154 8.60312 17.2685 8.59375 15.1826 8.59375C13.0966 8.59375 12.8497 8.60312 12.0263 8.64062C11.5306 8.6463 11.0396 8.73721 10.5747 8.90937C10.2376 9.03953 9.93153 9.23886 9.67614 9.49452C9.42075 9.75018 9.22174 10.0565 9.09194 10.3937C8.91994 10.8581 8.82904 11.3486 8.82319 11.8437C8.78569 12.6672 8.77631 12.9141 8.77631 15C8.77631 17.0859 8.78569 17.3328 8.82319 18.1562C8.82886 18.6519 8.91977 19.1429 9.09194 19.6078C9.2221 19.9449 9.42143 20.251 9.67708 20.5064C9.93274 20.7618 10.2391 20.9608 10.5763 21.0906C11.0407 21.2626 11.5311 21.3535 12.0263 21.3594C12.8497 21.3969 13.0966 21.4047 15.1826 21.4047C17.2685 21.4047 17.5154 21.3969 18.3388 21.3578C18.8344 21.3526 19.3254 21.2623 19.7904 21.0906C20.1275 20.9605 20.4336 20.7611 20.689 20.5055C20.9444 20.2498 21.1434 19.9435 21.2732 19.6062C21.4452 19.1419 21.5361 18.6514 21.5419 18.1562C21.5794 17.3328 21.5872 17.0859 21.5872 15C21.5872 12.9141 21.5794 12.6672 21.5404 11.8437C21.5352 11.3482 21.4448 10.8571 21.2732 10.3922ZM15.1826 19.0125C14.389 19.0125 13.6132 18.7772 12.9533 18.3363C12.2935 17.8954 11.7792 17.2687 11.4755 16.5355C11.1718 15.8023 11.0923 14.9955 11.2472 14.2172C11.402 13.4388 11.7841 12.7239 12.3453 12.1627C12.9065 11.6016 13.6214 11.2194 14.3998 11.0646C15.1781 10.9098 15.9849 10.9892 16.7181 11.2929C17.4513 11.5966 18.0779 12.1109 18.5188 12.7708C18.9597 13.4306 19.1951 14.2064 19.1951 15C19.1951 16.0642 18.7723 17.0848 18.0198 17.8373C17.2673 18.5898 16.2467 19.0125 15.1826 19.0125ZM19.3529 11.7672C19.1675 11.7672 18.9862 11.7122 18.832 11.6092C18.6779 11.5062 18.5577 11.3598 18.4867 11.1885C18.4158 11.0171 18.3972 10.8286 18.4334 10.6468C18.4696 10.4649 18.5588 10.2979 18.69 10.1668C18.8211 10.0357 18.9881 9.94637 19.17 9.9102C19.3518 9.87403 19.5403 9.89259 19.7116 9.96355C19.8829 10.0345 20.0294 10.1547 20.1324 10.3088C20.2354 10.463 20.2904 10.6443 20.2904 10.8297C20.2904 11.0783 20.1916 11.3168 20.0158 11.4926C19.84 11.6684 19.6015 11.7672 19.3529 11.7672ZM17.7872 15C17.7872 15.5152 17.6345 16.0187 17.3483 16.4471C17.0621 16.8754 16.6553 17.2093 16.1793 17.4064C15.7034 17.6036 15.1797 17.6551 14.6744 17.5546C14.1692 17.4541 13.705 17.2061 13.3408 16.8418C12.9765 16.4775 12.7284 16.0134 12.6279 15.5081C12.5274 15.0029 12.579 14.4792 12.7761 14.0032C12.9733 13.5273 13.3071 13.1205 13.7355 12.8343C14.1638 12.5481 14.6674 12.3953 15.1826 12.3953C15.8734 12.3953 16.5359 12.6697 17.0244 13.1582C17.5128 13.6467 17.7872 14.3092 17.7872 15ZM15.1826 0C12.2158 0 9.31574 0.879734 6.84901 2.52796C4.38227 4.17618 2.45968 6.51886 1.32437 9.25975C0.189055 12.0006 -0.107995 15.0166 0.470784 17.9264C1.04956 20.8361 2.47817 23.5088 4.57596 25.6066C6.67375 27.7044 9.34649 29.133 12.2562 29.7118C15.1659 30.2906 18.1819 29.9935 20.9228 28.8582C23.6637 27.7229 26.0064 25.8003 27.6546 23.3335C29.3028 20.8668 30.1826 17.9667 30.1826 15C30.1826 11.0218 28.6022 7.20644 25.7892 4.3934C22.9761 1.58035 19.1608 0 15.1826 0ZM22.9482 18.2203C22.935 18.8686 22.8119 19.51 22.5841 20.1172C22.3835 20.6361 22.0766 21.1073 21.6832 21.5007C21.2898 21.894 20.8186 22.2009 20.2997 22.4016C19.6931 22.6291 19.0522 22.7522 18.4044 22.7656C17.5701 22.8031 17.3044 22.8125 15.1826 22.8125C13.0607 22.8125 12.7951 22.8031 11.9607 22.7656C11.3129 22.7522 10.672 22.6291 10.0654 22.4016C9.5465 22.2009 9.07527 21.894 8.6819 21.5007C8.28852 21.1073 7.98166 20.6361 7.781 20.1172C7.55344 19.5105 7.43034 18.8697 7.41694 18.2219C7.37944 17.3875 7.37006 17.1219 7.37006 15C7.37006 12.8781 7.37944 12.6125 7.41694 11.7781C7.42984 11.1304 7.55241 10.4896 7.77944 9.88281C7.98009 9.3635 8.2871 8.89187 8.68077 8.49821C9.07444 8.10454 9.54606 7.79753 10.0654 7.59687C10.6721 7.36985 11.313 7.24728 11.9607 7.23437C12.7951 7.19687 13.0607 7.1875 15.1826 7.1875C17.3044 7.1875 17.5701 7.19687 18.4044 7.23437C19.0521 7.24728 19.693 7.36985 20.2997 7.59687C20.8188 7.79771 21.2901 8.1048 21.6835 8.49846C22.0769 8.89212 22.3836 9.36365 22.5841 9.88281C22.8117 10.4895 22.9348 11.1303 22.9482 11.7781C22.9857 12.6125 22.9951 12.8781 22.9951 15C22.9951 17.1219 22.9857 17.3859 22.9482 18.2203Z" fill="black"/>
</svg>
