<svg width="23" height="24" viewBox="0 0 23 24" fill="none" xmlns="http://www.w3.org/2000/svg">
<path d="M11.9376 4.98603L13.2224 7.30948C13.3985 7.6284 13.8403 7.93138 14.2036 7.97233L16.3663 8.24418C17.751 8.41524 18.1081 9.39797 17.1658 10.4273L15.5602 12.1711C15.2922 12.4634 15.1531 13.0209 15.2608 13.4035L15.8233 15.4565C16.2658 17.0774 15.4243 17.7492 13.9456 16.9531L11.8799 15.8407C11.5037 15.6373 10.9062 15.6669 10.5527 15.8952L8.58627 17.1681C7.17858 18.0778 6.28282 17.4789 6.5917 15.8286L6.98725 13.7401C7.06109 13.3497 6.88404 12.8049 6.59181 12.5368L4.83843 10.9287C3.81515 9.98287 4.0904 8.97474 5.45397 8.68893L7.58308 8.24419C7.9424 8.16614 8.35881 7.83676 8.50501 7.50163L9.59581 5.07639C10.192 3.76971 11.2439 3.72854 11.9376 4.98603Z" fill="white"/>
</svg>
