<svg width="31" height="30" viewBox="0 0 31 30" fill="none" xmlns="http://www.w3.org/2000/svg">
<g opacity="0.5">
<path d="M15.1826 0C6.89907 0 0.182556 6.71652 0.182556 15C0.182556 23.2835 6.89907 30 15.1826 30C23.466 30 30.1826 23.2835 30.1826 15C30.1826 6.71652 23.466 0 15.1826 0ZM22.3913 11.3069C22.4013 11.4643 22.4013 11.6283 22.4013 11.7891C22.4013 16.7042 18.658 22.3661 11.8176 22.3661C9.70823 22.3661 7.75287 21.7533 6.10555 20.6987C6.40689 20.7321 6.69483 20.7455 7.00287 20.7455C8.74394 20.7455 10.3444 20.1562 11.6201 19.1585C9.98613 19.125 8.61336 18.0536 8.14461 16.5804C8.71715 16.6641 9.23278 16.6641 9.82206 16.5134C8.98075 16.3425 8.22455 15.8855 7.68194 15.2203C7.13933 14.555 6.84378 13.7223 6.8455 12.8638V12.817C7.33769 13.0949 7.91693 13.2656 8.52296 13.2891C8.0135 12.9495 7.5957 12.4895 7.30659 11.9499C7.01748 11.4102 6.866 10.8075 6.86559 10.1953C6.86559 9.50223 7.0464 8.86942 7.37117 8.32031C8.305 9.46988 9.47027 10.4101 10.7913 11.0798C12.1122 11.7495 13.5594 12.1338 15.0386 12.2076C14.5129 9.67969 16.4013 7.63393 18.6714 7.63393C19.7428 7.63393 20.7071 8.08259 21.3868 8.8058C22.2272 8.64844 23.0308 8.3337 23.7473 7.91183C23.4694 8.77232 22.8868 9.49888 22.1134 9.95759C22.8634 9.87723 23.5866 9.66964 24.2562 9.37835C23.7506 10.1217 23.1178 10.7812 22.3913 11.3069Z" fill="black"/>
</g>
</svg>
