<svg width="31" height="30" viewBox="0 0 31 30" fill="none" xmlns="http://www.w3.org/2000/svg">
<g opacity="0.5">
<path d="M17.6872 14.7391L14.1779 13.1016C13.8716 12.9594 13.6201 13.1187 13.6201 13.4578V16.5422C13.6201 16.8813 13.8716 17.0406 14.1779 16.8984L17.6857 15.2609C17.9935 15.1172 17.9935 14.8828 17.6872 14.7391ZM15.1826 0C6.89818 0 0.182556 6.71562 0.182556 15C0.182556 23.2844 6.89818 30 15.1826 30C23.4669 30 30.1826 23.2844 30.1826 15C30.1826 6.71562 23.4669 0 15.1826 0ZM15.1826 21.0937C7.50443 21.0937 7.37006 20.4016 7.37006 15C7.37006 9.59844 7.50443 8.90625 15.1826 8.90625C22.8607 8.90625 22.9951 9.59844 22.9951 15C22.9951 20.4016 22.8607 21.0937 15.1826 21.0937Z" fill="black"/>
</g>
</svg>
